inDegrees=yes
name=ik_Xsens_4_quaternion
DataType=double
version=3
OpenSimVersion=4.4-2022-07-23-0e9fedc
endheader
time	r_shoulder_elev	r_elbow_flex
23.98333333333333	17.31563681284906	-6.920563195556953
24	17.58472283573029	-7.155487724975415
24.01666666666667	18.05064448723155	-7.573825094747142
24.03333333333333	18.4119054216134	-7.899744729540433
24.05	18.35741321731539	-7.860805936925522
24.06666666666667	18.29039311592713	-7.807078140260478
24.08333333333333	18.29111085440582	-7.806291766764345
24.1	18.28902081981408	-7.808354571499782
24.11666666666667	18.36275910327728	-7.877531333329104
24.13333333333333	18.35733652828166	-7.882905075192697
24.15	18.35699524852167	-7.883641265363569
24.16666666666667	18.43239874177936	-7.955290762960038
24.18333333333333	18.43688012962208	-7.951086319343755
24.2	18.44581443226308	-7.942516443585768
24.21666666666667	18.54222264738915	-8.020436626562629
24.23333333333333	18.49468164063895	-7.983192652373535
24.25	18.49018583576776	-7.987468135169072
24.26666666666667	18.49352745997533	-7.984425828341015
24.28333333333333	18.56384222549546	-8.048201175157123
24.3	18.55953999295972	-8.052524576474054
24.31666666666667	18.55208069178462	-8.060271575432914
24.33333333333333	18.54423158445914	-8.067600972318026
24.35	18.37892178469824	-7.91597269031752
24.36666666666667	18.38273680850126	-7.912075882788905
24.38333333333333	18.38608311456031	-7.909161104238145
24.4	18.55649973280713	-8.064464415242112
24.41666666666667	18.75247822116408	-8.236921951694496
24.43333333333333	18.95099351848724	-8.41001624092098
24.45	19.15993935264913	-8.589694383748025
24.46666666666667	19.44421117106522	-8.844769311787477
24.48333333333333	19.51113871413311	-8.914678295710424
24.5	19.42847390678815	-8.843965058045155
24.51666666666667	19.32653032436311	-8.748809124082952
24.53333333333333	19.42049419907756	-8.838119145225475
24.55	19.5712287057208	-8.983855861142052
24.56666666666667	19.61642229399072	-9.034040363140051
24.58333333333333	19.61172192210509	-9.039164995061247
24.6	19.60663822863819	-9.044752413194578
24.61666666666667	19.59853963490001	-9.052728540415053
24.63333333333333	19.59582936911284	-9.055777239979598
24.65	19.7535616660939	-9.208036004290461
24.66666666666667	19.74305501067592	-9.219104735233728
24.68333333333333	19.73074353249266	-9.231070514131574
24.7	19.62624679170293	-9.135487346463938
24.71666666666667	19.62279242764492	-9.139358843030982
24.73333333333333	19.84416243409366	-9.342760118699436
24.75	19.92890054602502	-9.425675035190226
24.76666666666667	19.74301094313907	-9.268323211947509
24.78333333333333	19.64669333834342	-9.187494290065063
24.8	19.63261801735703	-9.201484017521391
24.81666666666667	19.67383625853137	-9.26487785209015
24.83333333333333	19.66727919242299	-9.271007188363017
24.85	19.52304866002678	-9.142940366569386
24.86666666666667	19.43365271122081	-9.060702519171928
24.88333333333333	19.43535669777638	-9.058941971149849
24.9	19.53458646195521	-9.156043534732024
24.91666666666667	19.70673107091167	-9.31834378557498
24.93333333333333	19.77448368584443	-9.381760447442064
24.95	19.58018507944205	-9.212754051758919
24.96666666666667	19.33821610736382	-9.005002407818496
24.98333333333333	19.11243036883974	-8.81811675274205
25	19.10642095750333	-8.823743104171493
25.01666666666667	19.15741697758967	-8.869646030897563
25.03333333333333	19.22652010515566	-8.929637761176979
25.05	19.14318347410301	-8.849073094208755
25.06666666666667	18.99568501108243	-8.713248307153931
25.08333333333333	18.85178072176438	-8.579894195597017
25.1	18.64733105478522	-8.407441090311163
25.11666666666667	18.60693616939339	-8.360284418891355
25.13333333333333	18.55174981223604	-8.308870989936356
25.15	18.69729147555304	-8.438136578374596
25.16666666666667	18.78498261168132	-8.510311895670295
25.18333333333333	18.78982181763372	-8.50594666611866
25.2	18.86269848866001	-8.571459326689382
25.21666666666667	18.85482230538095	-8.578901894009398
25.23333333333333	18.85482230538095	-8.578901894009398
25.25	18.9867159213935	-8.703430272345875
25.26666666666667	18.92205235883122	-8.644617884909858
25.28333333333333	18.83723035648313	-8.5649956483929
25.3	18.69407499256487	-8.436586600579874
25.31666666666667	18.59481124990686	-8.346063437180627
25.33333333333333	18.67194980046677	-8.409291520358614
25.35	18.74104626819349	-8.473756831225582
25.36666666666667	18.74210829404867	-8.472875932238853
25.38333333333333	18.60430011246836	-8.352716522851532
25.4	18.52475890555791	-8.279946705924925
25.41666666666667	18.57964340715339	-8.323554086999568
25.43333333333333	18.6875758140108	-8.416122598430148
25.45	18.69330932164523	-8.410832588900304
25.46666666666667	18.6950890418756	-8.409029940619167
25.48333333333333	18.69432039220038	-8.409337962500954
25.5	18.64863863541624	-8.369479252060422
25.51666666666667	18.6475624291317	-8.370434779629834
25.53333333333333	18.56881102810321	-8.300190023390899
25.55	18.48482554598861	-8.216524168581497
25.56666666666667	18.3428084992067	-8.081581715549664
25.58333333333333	18.38399792217388	-8.119078266229485
25.6	18.46350088232441	-8.193174967933642
25.61666666666667	18.51210675452636	-8.234533453541134
25.63333333333333	18.40261430585986	-8.130248981864007
25.65	18.34814914443088	-8.06599531914522
25.66666666666667	18.35564646895815	-8.058210209959226
25.68333333333333	18.36314054091716	-8.05041203999288
25.7	18.36314054091716	-8.05041203999288
25.71666666666667	18.36963428223795	-8.056040049391711
25.73333333333333	18.31643648737738	-8.004624319279451
25.75	18.24773136128893	-7.93244566582888
25.76666666666667	18.25217917598534	-7.927775877331709
25.78333333333333	18.09342496133342	-7.766935100187716
25.8	17.53577673119239	-7.239235154030939
25.81666666666667	16.82355564633604	-6.579328034643502
25.83333333333333	16.15252713648397	-5.970367093165566
25.85	15.36630886125961	-5.23540645269857
25.86666666666667	14.33991001984019	-4.305968999744928
25.88333333333333	13.20094029490832	-3.241542944351525
25.9	12.35703462910194	-2.420638105880335
25.91666666666667	12.01860184655072	-2.08293446100263
25.93333333333333	11.77890191616292	-1.866056522704318
25.95	11.7216975187874	-1.829543387037125
25.96666666666667	11.70660175443618	-1.844813093392284
25.98333333333333	11.69730889174463	-1.853843120634496
26	11.64617479241015	-1.800659329091169
26.01666666666667	11.5059346528887	-1.645961802985545
26.03333333333333	11.08839491984446	-1.25784837433458
26.05	10.42440638013041	-0.6842514253169578
26.06666666666667	9.739088382853231	-0.1001011453440156
26.08333333333333	8.978568588515124	0.5257962088639447
26.1	8.032965773945602	1.324080721128301
26.11666666666667	7.338129793765641	1.916592350151195
26.13333333333333	7.058506526249866	2.091611930104416
26.15	6.823033282142604	2.209834528440339
26.16666666666667	6.588995558142338	2.196691405240704
26.18333333333333	7.190774318756979	1.389442602241455
26.2	8.731212984734581	-0.2679213025960844
26.21666666666667	10.46875789273553	-2.170545999822136
26.23333333333333	11.83681555489451	-3.776603743094184
26.25	13.3843683354527	-5.590433088311514
26.26666666666667	14.50777800643745	-6.890139291486261
26.28333333333333	13.80086382416897	-6.245833846982626
26.3	12.89327800025927	-5.34196712657954
26.31666666666667	12.41346145670864	-4.836769286359922
26.33333333333333	12.24618399585362	-4.632031866907942
26.35	12.62520619279156	-4.993796324432357
26.36666666666667	12.79521859703449	-5.174555213326963
26.38333333333333	12.79291175609016	-5.177268284398724
26.4	12.66663228320392	-5.069091284162093
26.41666666666667	12.65513581088215	-5.080093404966384
26.43333333333333	12.64611766053959	-5.089039319716597
26.45	12.6438321532675	-5.090971095747346
26.46666666666667	12.62711685029585	-5.107170662803924
26.48333333333333	12.59568987138717	-5.138309867542763
26.5	12.7938327239391	-5.412151547211731
26.51666666666667	12.61768812162183	-5.283116841344684
26.53333333333333	12.57848939502892	-5.322513424874503
26.55	12.58476649786523	-5.514649835403622
26.56666666666667	12.27636821202392	-5.391723741394425
26.58333333333333	11.99949394888728	-5.21170412496362
26.6	9.361547956576739	-2.646729652277314
26.61666666666667	4.412831601322091	2.12950006513232
26.63333333333333	4.41448643792136	2.131393024112609
26.65	4.31365455492737	2.239643420835653
26.66666666666667	4.320593179969514	2.246910346238621
26.68333333333333	4.232792032692374	2.351321632455415
26.7	4.242193387935631	2.361091521399013
26.71666666666667	4.250192557684449	2.36957590742134
26.73333333333333	4.090652952301964	2.536942646499076
26.75	4.091176094651032	2.537828894468421
26.76666666666667	3.882205528716788	2.76192632253515
26.78333333333333	3.688553923214309	2.984905003434032
26.8	3.689116464294859	2.985676363407787
26.81666666666667	3.689116464294859	2.985676363407787
26.83333333333333	3.595062732110784	3.079441856100915
26.85	3.460243020614469	3.194035819578168
26.86666666666667	3.3421886693018	3.279487403786857
26.88333333333333	3.331757480930582	3.269328725511167
26.9	3.329398402034734	3.267468549708552
26.91666666666667	3.301277481031353	3.291954829984808
26.93333333333333	3.213315670030564	3.379190097707492
26.95	3.213812274874554	3.379709423190774
26.96666666666667	3.213242901511092	3.37911328929217
26.98333333333333	3.212386375853692	3.37814192460936
27	3.210107985609342	3.375615540276336
27.01666666666667	3.206940291819004	3.37227896147719
27.03333333333333	3.205106022296935	3.370230872339465
27.05	3.204415883069688	3.369313832125969
27.06666666666667	3.204415883069688	3.369313832125969
27.08333333333333	3.203781753638104	3.368439334857047
27.1	3.203781753638104	3.368439334857047
27.11666666666667	3.203418652485359	3.367697962718415
27.13333333333333	3.202985792038717	3.366864406816886
27.15	3.203937996780609	3.367486738136896
27.16666666666667	3.227443458454324	3.390597153953972
27.18333333333333	3.243677147857645	3.406514430281394
27.2	3.25309426026441	3.415380888698027
27.21666666666667	3.358987319008417	3.328482143857197
27.23333333333333	3.371709006108662	3.341093057339495
27.25	3.390427027656872	3.359734378532381
27.26666666666667	3.40827953049202	3.377529013223197
27.28333333333333	3.415490544673391	3.384726228007105
27.3	3.295846678563404	3.478921237560513
27.31666666666667	3.294731641951293	3.477692968258358
27.33333333333333	3.303336819059687	3.486504749642546
27.35	3.194655407447579	3.617856450477211
27.36666666666667	3.071772778276491	3.756243967149305
27.38333333333333	2.873986682222941	3.920247049250914
27.4	2.767257991947282	3.997878852675653
27.41666666666667	2.745151920619147	3.976131559355482
27.43333333333333	2.628464451177777	4.083879355156492
27.45	2.641584622053551	4.096988974735204
27.46666666666667	2.66920262078413	4.124309939447551
27.48333333333333	2.703056940605797	4.157839603601908
27.5	2.732294245902948	4.187129382160251
27.51666666666667	2.660174470216252	4.30190899629347
27.53333333333333	2.671040265662505	4.313021127212568
27.55	2.534238109816652	4.463238551548399
27.56666666666667	2.256368804838643	4.761390051630848
27.58333333333333	2.001436135758659	5.00611567786129
27.6	1.869579980546647	5.138999380392336
27.61666666666667	1.871490257164759	5.14127211793253
27.63333333333333	1.556731405579443	5.433717333267728
27.65	1.021396831720573	5.928536596077201
27.66666666666667	0.363638148452292	6.541953630892627
27.68333333333333	-0.3316294010225445	7.206343190707761
27.7	-0.8345388694405083	7.694867779749983
27.71666666666667	-1.081328865841013	7.948928702544793
27.73333333333333	-1.202991348283694	8.103956353077768
27.75	-1.826358579052109	8.738254598072617
27.76666666666667	-2.454684431982603	9.390958931408912
27.78333333333333	-2.650320663931585	9.668463046606908
27.8	-2.62459008074411	9.694563528677573
27.81666666666667	-2.62741804477833	9.691569353616446
27.83333333333333	-2.242372801543639	9.297270719877886
27.85	-2.008152032880702	9.067338005406588
27.86666666666667	-2.004543934576216	9.071254583991317
27.88333333333333	-1.994348360979135	9.081268516119549
27.9	-1.877657631064765	8.965847703545526
27.91666666666667	-1.465784907671395	8.5436315545643
27.93333333333333	-0.8698443388986975	7.945793342466041
